<svg width="302" height="318" viewBox="0 0 302 318" fill="none" xmlns="http://www.w3.org/2000/svg">
<circle cx="150" cy="150" r="150" fill="url(#paint0_linear)"/>
<path fill-rule="evenodd" clip-rule="evenodd" d="M299.934 145.5C297.554 226.261 231.337 291 150 291C68.6626 291 2.44572 226.261 0.0662095 145.5C0.0221728 146.995 0 148.495 0 150C0 232.843 67.1573 300 150 300C232.843 300 300 232.843 300 150C300 148.495 299.978 146.995 299.934 145.5Z" fill="black" fill-opacity="0.1"/>
<path fill-rule="evenodd" clip-rule="evenodd" d="M240.071 99.0708L116.5 222.642L59.929 166.071L74.0711 151.929L116.5 194.358L225.929 84.9287L240.071 99.0708Z" fill="white"/>
<path d="M240 99L302 161V318H212L116.5 222.5L240 99Z" fill="url(#paint1_linear)"/>
<defs>
<linearGradient id="paint0_linear" x1="0" y1="0" x2="300" y2="300" gradientUnits="userSpaceOnUse">
<stop stop-color="#1FF1A0"/>
<stop offset="1" stop-color="#3DD425"/>
</linearGradient>
<linearGradient id="paint1_linear" x1="116" y1="99" x2="290.5" y2="273.5" gradientUnits="userSpaceOnUse">
<stop stop-color="#469922" stop-opacity="0.7"/>
<stop offset="0.770824" stop-color="#469922" stop-opacity="0"/>
</linearGradient>
</defs>
</svg>
